<?xml version="1.0" encoding="UTF-8" standalone="no"?><!DOCTYPE svg PUBLIC "-//W3C//DTD SVG 1.1//EN" "http://www.w3.org/Graphics/SVG/1.1/DTD/svg11.dtd"><svg width="100%" height="100%" viewBox="0 0 68 65" version="1.1" xmlns="http://www.w3.org/2000/svg" xmlns:xlink="http://www.w3.org/1999/xlink" xml:space="preserve" xmlns:serif="http://www.serif.com/" style="fill-rule:evenodd;clip-rule:evenodd;stroke-linejoin:round;stroke-miterlimit:1.41421;"><circle cx="32.951" cy="31.015" r="14.053" style="fill:#fff;"/><path d="M54.759,38.651c3.291,-0.888 6.684,1.062 7.572,4.353c0.889,3.29 -1.061,6.683 -4.352,7.572c-3.291,0.888 -6.684,-1.062 -7.572,-4.353c-0.889,-3.29 1.062,-6.683 4.352,-7.572Z" style="fill:#fff;"/><path d="M23.101,0.312c3.291,-0.888 6.684,1.062 7.572,4.353c0.889,3.29 -1.062,6.683 -4.352,7.572c-3.291,0.888 -6.684,-1.062 -7.572,-4.353c-0.889,-3.29 1.062,-6.683 4.352,-7.572Z" style="fill:#fff;"/><path d="M23.264,50.791c3.291,-0.889 6.683,1.062 7.572,4.352c0.888,3.291 -1.062,6.684 -4.352,7.572c-3.291,0.889 -6.684,-1.062 -7.572,-4.352c-0.889,-3.291 1.061,-6.684 4.352,-7.572Z" style="fill:#fff;"/><path d="M53.929,9.163c3.29,-0.889 6.683,1.061 7.572,4.352c0.888,3.291 -1.062,6.684 -4.353,7.572c-3.29,0.889 -6.683,-1.062 -7.572,-4.352c-0.888,-3.291 1.062,-6.684 4.353,-7.572Z" style="fill:#fff;"/><path d="M5.851,26.416c3.29,-0.888 6.683,1.062 7.572,4.353c0.888,3.29 -1.062,6.683 -4.353,7.571c-3.29,0.889 -6.683,-1.061 -7.572,-4.352c-0.888,-3.29 1.062,-6.683 4.353,-7.572Z" style="fill:#fff;"/></svg>