<?xml version="1.0" encoding="UTF-8" standalone="no"?><!DOCTYPE svg PUBLIC "-//W3C//DTD SVG 1.1//EN" "http://www.w3.org/Graphics/SVG/1.1/DTD/svg11.dtd"><svg width="100%" height="100%" viewBox="0 0 68 65" version="1.1" xmlns="http://www.w3.org/2000/svg" xmlns:xlink="http://www.w3.org/1999/xlink" xml:space="preserve" xmlns:serif="http://www.serif.com/" style="fill-rule:evenodd;clip-rule:evenodd;stroke-miterlimit:10;"><circle cx="34.534" cy="32.917" r="11.556" style="fill:none;stroke:#fff;stroke-width:3px;"/><path d="M52.467,39.196c2.706,-0.731 5.496,0.873 6.227,3.579c0.73,2.706 -0.873,5.496 -3.579,6.226c-2.706,0.731 -5.496,-0.873 -6.226,-3.579c-0.731,-2.705 0.873,-5.495 3.578,-6.226Z" style="fill:none;stroke:#fff;stroke-width:3px;"/><path d="M26.435,7.67c2.706,-0.731 5.496,0.873 6.227,3.579c0.73,2.706 -0.873,5.496 -3.579,6.226c-2.706,0.731 -5.496,-0.873 -6.227,-3.579c-0.73,-2.705 0.873,-5.495 3.579,-6.226Z" style="fill:none;stroke:#fff;stroke-width:3px;"/><path d="M26.569,49.178c2.706,-0.73 5.496,0.873 6.226,3.579c0.731,2.706 -0.873,5.496 -3.578,6.226c-2.706,0.731 -5.496,-0.873 -6.227,-3.578c-0.73,-2.706 0.873,-5.496 3.579,-6.227Z" style="fill:none;stroke:#fff;stroke-width:3px;"/><path d="M51.784,14.948c2.706,-0.731 5.496,0.873 6.227,3.579c0.73,2.705 -0.873,5.495 -3.579,6.226c-2.706,0.731 -5.496,-0.873 -6.227,-3.579c-0.73,-2.706 0.874,-5.496 3.579,-6.226Z" style="fill:none;stroke:#fff;stroke-width:3px;"/><path d="M12.25,29.135c2.706,-0.731 5.496,0.873 6.227,3.579c0.73,2.706 -0.873,5.496 -3.579,6.226c-2.706,0.731 -5.496,-0.873 -6.227,-3.579c-0.73,-2.705 0.873,-5.495 3.579,-6.226Z" style="fill:none;stroke:#fff;stroke-width:3px;"/></svg>